<svg width="200" height="43" viewBox="0 0 200 43" fill="none" xmlns="http://www.w3.org/2000/svg">
<path d="M51.2764 37.7936C51.0759 37.6558 50.8669 37.5554 50.6607 37.4894C50.4574 37.4262 50.1711 37.3516 49.8132 37.2684C49.3465 37.1507 48.9742 37.0101 48.7108 36.8551C48.4588 36.703 48.2899 36.5365 48.2155 36.3557C48.1382 36.1662 48.0981 35.9768 48.0981 35.7845C48.0981 35.3684 48.2298 35.0412 48.4932 34.8144C48.7595 34.5819 49.1346 34.4643 49.6156 34.4643C50.005 34.4643 50.3229 34.536 50.5605 34.6795C50.7925 34.8202 50.9671 35.044 51.0788 35.3483L51.1017 35.4114L51.5942 35.3397L51.5684 35.2478C51.3451 34.4384 50.6894 34.028 49.6156 34.028C48.9857 34.028 48.4818 34.1859 48.1181 34.493C47.7516 34.8058 47.5655 35.2449 47.5655 35.8017C47.5655 36.2983 47.7344 36.703 48.0637 37.0043C48.3873 37.2971 48.9055 37.5324 49.607 37.6989C50.1654 37.8367 50.5033 37.9314 50.6121 37.9802C50.7209 38.029 50.8268 38.0921 50.9328 38.1696C51.2506 38.4078 51.4052 38.7465 51.4052 39.2028C51.4052 39.6592 51.2534 40.0409 50.9528 40.2906C50.6493 40.546 50.194 40.6752 49.607 40.6752C49.146 40.6752 48.7738 40.5891 48.4989 40.4169C48.2269 40.2475 48.0293 39.9806 47.912 39.6219L47.889 39.553L47.3851 39.6362L47.408 39.7252C47.5225 40.1873 47.7659 40.5403 48.1353 40.7699C48.4961 40.9966 48.9914 41.1115 49.6099 41.1115C50.446 41.1115 51.0731 40.8933 51.4739 40.4657C51.786 40.1213 51.9435 39.685 51.9435 39.1655C51.9435 38.8814 51.8862 38.6173 51.7717 38.3791C51.6572 38.138 51.4911 37.9428 51.2849 37.7965L51.2764 37.7936Z" fill="white"/>
<path d="M55.6973 41.0426H59.6458V40.6092H56.2213V37.7391H59.1619V37.3028H56.2213V34.5303H59.6687V34.0941H55.6973V41.0426Z" fill="white"/>
<path d="M67.351 37.2914C67.6431 36.9613 67.7891 36.525 67.7891 35.9998C67.7891 35.4143 67.6087 34.9493 67.2565 34.6193C67.0589 34.4327 66.8156 34.2978 66.5349 34.2146C66.2572 34.1342 65.9022 34.0941 65.4812 34.0941H63.4082V41.0426H63.9293V37.9084H65.7332L67.2622 41.0426H67.8292L66.2572 37.8539C66.7153 37.785 67.0818 37.5956 67.351 37.2914ZM63.9293 34.5303H65.4583C65.779 34.5303 66.0453 34.5561 66.2543 34.6078C66.4576 34.6595 66.6294 34.7427 66.7697 34.8632C67.0904 35.1101 67.2536 35.4975 67.2536 36.0113C67.2536 36.4619 67.1219 36.8207 66.8671 37.0818C66.6924 37.254 66.492 37.3631 66.2687 37.4062C66.0367 37.4521 65.7905 37.475 65.5385 37.475H63.9293V34.5303Z" fill="white"/>
<path d="M73.5644 40.0524L71.5973 34.1515L71.5801 34.0941H71.0361L73.364 41.0426H73.7448L76.0727 34.0941H75.5287L73.5644 40.0524Z" fill="white"/>
<path d="M80.2159 34.0941H79.6948V41.0426H80.2159V34.0941Z" fill="white"/>
<path d="M85.7707 43H86.2174L87.0363 41.5965H86.372L85.7707 43Z" fill="white"/>
<path d="M88.2389 39.3406C88.216 39.7625 88.0614 40.084 87.7636 40.3222C87.4658 40.5604 87.0649 40.6838 86.5696 40.6838C85.9855 40.6838 85.5503 40.5231 85.2811 40.2102C85.0062 39.8917 84.8659 39.3779 84.8659 38.6805V36.459C84.8659 35.7616 85.0062 35.2478 85.2811 34.9292C85.5531 34.6135 85.9941 34.4557 86.5954 34.4557C87.0764 34.4557 87.4601 34.5705 87.7378 34.7943C88.0156 35.0182 88.1645 35.3253 88.196 35.7357L88.2017 35.8161L88.7085 35.8017V35.7156C88.6885 35.1847 88.4909 34.7656 88.1158 34.4643C87.7464 34.1687 87.2339 34.0194 86.5982 34.0194C85.8309 34.0194 85.2439 34.2433 84.8516 34.6824C84.6712 34.8804 84.5395 35.1273 84.4622 35.4114C84.3849 35.6898 84.3477 36.0486 84.3477 36.4791V38.6633C84.3477 39.0593 84.3792 39.3951 84.4393 39.6563C84.4994 39.9232 84.6025 40.1528 84.7428 40.3394C84.9318 40.592 85.1866 40.7871 85.5016 40.922C85.8137 41.0569 86.1745 41.1229 86.5753 41.1229C86.9762 41.1229 87.3198 41.0655 87.6004 40.9565C87.881 40.8445 88.1072 40.701 88.2761 40.5346C88.4451 40.3652 88.5682 40.1758 88.6369 39.972C88.7056 39.7711 88.7457 39.5702 88.7543 39.3722V39.2889L88.2475 39.2602L88.2418 39.3463L88.2389 39.3406Z" fill="white"/>
<path d="M96.932 34.757C96.4939 34.2662 95.8582 34.0165 95.045 34.0165C94.2948 34.0165 93.6907 34.2318 93.244 34.6594C92.9978 34.9034 92.8374 35.1789 92.7687 35.4774C92.7 35.7673 92.6656 36.0601 92.6656 36.3528V38.7838C92.6656 39.4784 92.826 40.0151 93.1467 40.3796C93.5847 40.8704 94.2233 41.1201 95.045 41.1201C95.7866 41.1201 96.3879 40.9048 96.8346 40.4772C97.0809 40.2332 97.2383 39.9577 97.3099 39.6563C97.3786 39.3664 97.413 39.0708 97.413 38.7838V36.3528C97.413 35.8936 97.3643 35.5549 97.2641 35.3167C97.1668 35.0842 97.0551 34.8948 96.932 34.757ZM96.889 36.4016V38.7379C96.889 39.1426 96.8518 39.4439 96.7773 39.6333C96.7029 39.8228 96.6141 39.9778 96.5082 40.0983C96.1818 40.4886 95.6893 40.6838 95.0422 40.6838C94.4466 40.6838 93.9713 40.5145 93.6306 40.1787C93.4759 40.0179 93.3614 39.8228 93.2927 39.6046C93.2211 39.3808 93.1839 39.088 93.1839 38.7379V36.4016C93.1839 35.9969 93.224 35.6927 93.3013 35.5033C93.3786 35.311 93.4673 35.1531 93.5647 35.0412C93.8911 34.6508 94.3893 34.4557 95.0422 34.4557C95.6292 34.4557 96.0987 34.6279 96.4395 34.9608C96.5941 35.1215 96.7086 35.3138 96.7802 35.532C96.8518 35.753 96.889 36.0486 96.889 36.4045V36.4016Z" fill="white"/>
<path d="M105.012 37.7936C104.812 37.6558 104.603 37.5554 104.397 37.4894C104.193 37.4262 103.91 37.3516 103.549 37.2684C103.082 37.1507 102.71 37.0129 102.447 36.8551C102.192 36.703 102.026 36.5365 101.951 36.3557C101.874 36.1662 101.834 35.9768 101.834 35.7845C101.834 35.3626 101.963 35.0469 102.229 34.8144C102.495 34.5819 102.87 34.4643 103.352 34.4643C103.741 34.4643 104.059 34.536 104.296 34.6795C104.528 34.8202 104.703 35.044 104.815 35.3483L104.838 35.4114L105.33 35.3397L105.304 35.2478C105.081 34.4384 104.425 34.028 103.352 34.028C102.722 34.028 102.218 34.1859 101.854 34.493C101.488 34.8058 101.301 35.2449 101.301 35.8017C101.301 36.2983 101.47 36.703 101.8 37.0043C102.123 37.2971 102.641 37.5324 103.343 37.6989C103.901 37.8367 104.239 37.9314 104.348 37.9802C104.457 38.029 104.563 38.0921 104.669 38.1696C104.986 38.4078 105.141 38.7465 105.141 39.2028C105.141 39.6592 104.989 40.0409 104.689 40.2906C104.385 40.546 103.93 40.6752 103.343 40.6752C102.882 40.6752 102.51 40.5891 102.235 40.4169C101.963 40.2475 101.765 39.9806 101.648 39.6219L101.625 39.553L101.121 39.6362L101.144 39.7252C101.258 40.1873 101.502 40.5403 101.871 40.7699C102.232 40.9966 102.727 41.1115 103.346 41.1115C104.182 41.1115 104.809 40.8933 105.21 40.4657C105.522 40.1213 105.679 39.685 105.679 39.1655C105.679 38.8814 105.622 38.6173 105.505 38.3791C105.387 38.138 105.224 37.9428 105.018 37.7965L105.012 37.7936Z" fill="white"/>
<path d="M114.135 34.0941H113.614V41.0426H114.135V34.0941Z" fill="white"/>
<path d="M122.782 40.0553L118.911 34.0941H118.438V41.0426H118.959V35.0814L122.831 41.0426H123.303V34.0941H122.782V40.0553Z" fill="white"/>
<path d="M127.017 34.5303H129.053V41.0426H129.577V34.5303H131.601V34.0941H127.017V34.5303Z" fill="white"/>
<path d="M135.315 41.0426H139.26V40.6092H135.836V37.7391H138.779V37.3028H135.836V34.5303H139.286V34.0941H135.315V41.0426Z" fill="white"/>
<path d="M143.532 34.0941H143.011V41.0426H147.029V40.6092H143.532V34.0941Z" fill="white"/>
<path d="M150.782 34.0941H150.261V41.0426H150.782V34.0941Z" fill="white"/>
<path d="M157.417 37.9285H159.1V38.8584C159.1 39.2373 159.063 39.5185 158.989 39.6936C158.914 39.8716 158.825 40.0179 158.72 40.1327C158.565 40.3107 158.359 40.4485 158.107 40.5403C157.852 40.635 157.56 40.6809 157.242 40.6809C156.618 40.6809 156.157 40.5202 155.868 40.2016C155.578 39.8802 155.43 39.3693 155.43 38.6776V36.4561C155.43 35.7587 155.573 35.2449 155.856 34.9264C156.137 34.6107 156.589 34.4528 157.205 34.4528C157.692 34.4528 158.087 34.5676 158.376 34.7943C158.665 35.0211 158.82 35.3282 158.848 35.73L158.854 35.8104L159.375 35.796V35.7099C159.347 35.1789 159.138 34.7599 158.751 34.4585C158.37 34.1629 157.843 34.0137 157.193 34.0137C156.417 34.0137 155.825 34.2375 155.424 34.6767C155.243 34.8747 155.109 35.1187 155.029 35.3971C154.949 35.6726 154.908 36.0342 154.908 36.4705V38.6546C154.908 39.1512 154.951 39.5099 155.037 39.7568C155.123 39.9979 155.221 40.1902 155.326 40.3308C155.524 40.5805 155.79 40.7785 156.12 40.9134C156.446 41.0454 156.824 41.1143 157.239 41.1143C158.021 41.1143 158.631 40.9019 159.052 40.4829C159.249 40.2906 159.395 40.0581 159.484 39.7883C159.573 39.5243 159.619 39.1971 159.619 38.8154V37.4865H157.414V37.9228L157.417 37.9285Z" fill="white"/>
<path d="M163.63 41.0426H167.579V40.6092H164.154V37.7391H167.095V37.3028H164.154V34.5303H167.602V34.0941H163.63V41.0426Z" fill="white"/>
<path d="M175.67 40.0553L171.799 34.0941H171.327V41.0426H171.851V35.0814L175.722 41.0426H176.192V34.0941H175.67V40.0553Z" fill="white"/>
<path d="M179.908 34.5303H181.944V41.0426H182.465V34.5303H184.489V34.0941H179.908V34.5303Z" fill="white"/>
<path d="M188.203 41.0426H192.152V40.6092H188.727V37.7391H191.668V37.3028H188.727V34.5303H192.175V34.0941H188.203V41.0426Z" fill="white"/>
<path d="M199.828 38.3762C199.711 38.1351 199.548 37.94 199.341 37.7936C199.141 37.6558 198.932 37.5554 198.726 37.4894C198.523 37.4262 198.239 37.3516 197.878 37.2684C197.412 37.1507 197.039 37.0101 196.776 36.8551C196.524 36.703 196.355 36.5365 196.281 36.3557C196.203 36.1662 196.163 35.9768 196.163 35.7845C196.163 35.3684 196.295 35.0412 196.558 34.8144C196.825 34.5819 197.2 34.4643 197.681 34.4643C198.07 34.4643 198.388 34.536 198.626 34.6795C198.858 34.8202 199.032 35.044 199.144 35.3483L199.167 35.4114L199.659 35.3397L199.634 35.2478C199.41 34.4384 198.754 34.028 197.681 34.028C197.051 34.028 196.547 34.1859 196.183 34.493C195.817 34.8058 195.631 35.2449 195.631 35.8017C195.631 36.2983 195.8 36.703 196.129 37.0043C196.452 37.2971 196.971 37.5324 197.672 37.6989C198.23 37.8367 198.568 37.9314 198.677 37.9802C198.786 38.029 198.892 38.0921 198.998 38.1696C199.316 38.4078 199.47 38.7465 199.47 39.2028C199.47 39.6592 199.319 40.0409 199.018 40.2906C198.714 40.546 198.259 40.6752 197.672 40.6752C197.211 40.6752 196.839 40.5891 196.564 40.4169C196.292 40.2475 196.094 39.9806 195.977 39.6219L195.954 39.553L195.45 39.6362L195.473 39.7252C195.588 40.1873 195.831 40.5403 196.2 40.7699C196.561 40.9966 197.057 41.1115 197.675 41.1115C198.511 41.1115 199.138 40.8933 199.539 40.4657C199.851 40.1213 200.009 39.685 200.009 39.1655C200.009 38.8814 199.951 38.6173 199.837 38.3791L199.828 38.3762Z" fill="white"/>
<path d="M47.3822 4.59792V26.8728H52.373V0C49.6185 0 47.3822 2.05787 47.3822 4.59792Z" fill="white"/>
<path d="M73.384 18.9743L61.6158 5.04279C61.6158 5.04279 57.6186 5.04279 57.5012 8.62469V26.8728H62.492V12.9413L74.2602 26.8728H78.3777V5.03992H73.3869V18.9714L73.384 18.9743Z" fill="white"/>
<path d="M82.6497 8.5558H90.0972V26.87H95.088V8.5558H102.493V5.03992H87.3484C84.7543 5.03992 82.6526 6.61561 82.6526 8.5558H82.6497Z" fill="white"/>
<path d="M106.77 8.44961V26.8728H124.288V23.357H111.761V17.5823H117.468C118.765 17.5823 119.816 16.7959 119.816 15.8229C119.816 14.85 118.765 14.0635 117.468 14.0635H111.761V8.5558H124.374V5.03992H110.47C108.425 5.03992 106.77 6.56682 106.77 8.44961Z" fill="white"/>
<path d="M133.686 5.03992C130.931 5.03992 128.695 6.71319 128.695 8.7768V26.8728H146.47V23.357H133.686V5.03992Z" fill="white"/>
<path d="M150.728 8.7768V26.8728H155.719V5.03992C152.964 5.03992 150.728 6.71319 150.728 8.7768Z" fill="white"/>
<path d="M177.595 7.38767V5.04279H165.248C162.654 5.04279 160.552 6.61848 160.552 8.55867H171.238L159.819 24.528V26.8728H178.11V23.357H166.176L177.595 7.38767Z" fill="white"/>
<path d="M199.814 8.5558V5.03992H185.91C183.865 5.03992 182.21 6.56682 182.21 8.44961V26.8728H199.728V23.357H187.201V17.5823H193.575C194.628 17.5823 195.482 16.7959 195.482 15.8229C195.482 14.85 194.628 14.0635 193.575 14.0635H187.201V8.5558H199.814Z" fill="white"/>
<path d="M17.8012 36.7403C17.303 37.1995 15.6967 38.5628 13.3831 38.5656C12.7418 38.5656 11.6709 38.5656 10.7575 37.8883C9.11107 36.6656 9.17979 34.1313 9.2256 32.5355C9.29146 30.1505 9.94143 28.4428 10.7203 26.4366C12.2579 22.4873 14.2021 19.7348 15.2071 18.4175C16.9938 16.0783 18.6574 14.5457 19.2014 14.0578C21.6009 11.9023 24.7391 9.15275 28.8651 8.95758C29.7527 8.91453 31.8201 8.81695 32.7707 10.0827C33.3118 10.8031 33.4378 11.8937 33.4922 12.3673C33.5867 13.2082 33.5066 13.9114 33.4178 14.3792C33.727 13.8741 34.7149 12.1204 34.3312 9.87028C34.2396 9.33931 33.9418 7.5828 32.5502 6.51225C32.2066 6.2482 30.8179 5.27236 27.2473 6.00711C22.6345 6.95425 19.5135 9.70955 17.1856 11.8076C16.298 12.6084 13.6723 15.0594 11.1727 18.9398C9.62933 21.3335 8.69875 23.3971 8.20912 24.5796C7.12965 27.1828 5.84402 30.3858 6.13322 34.3982C6.26207 36.1748 6.40237 37.8022 7.66509 38.933C9.2571 40.3595 11.5592 40.0351 12.4153 39.9146C15.3989 39.4956 17.2314 37.432 17.7984 36.7374L17.8012 36.7403Z" fill="url(#paint0_linear_89_47)"/>
<path fill-rule="evenodd" clip-rule="evenodd" d="M3.6765 35.1129C3.3873 33.3478 3.13533 30.868 3.3329 27.9175C3.41593 26.6777 3.56196 24.6284 4.2463 22.2433C4.80464 20.2888 6.0645 16.9193 9.11108 13.3948C10.1619 12.0602 11.7711 10.2893 14.0732 8.62753C16.8764 6.6041 19.4992 5.60531 21.0454 5.11739C24.2065 4.11859 26.9725 3.95499 28.8422 3.98943C27.2101 3.4642 24.8192 2.91027 21.9073 2.96767C19.0038 3.02508 16.7819 3.66798 15.7368 4.01526C15.0152 4.25348 13.0653 4.94518 10.8348 6.40033C10.2306 6.79353 8.06596 8.24581 5.86407 10.8346C4.97072 11.888 3.72517 13.3747 2.67147 15.6622C2.40805 16.2362 1.28849 18.7389 0.979249 22.2749C0.927709 22.8575 0.770227 24.947 1.194 27.6564C1.47174 29.4301 2.09881 32.1165 3.6765 35.1158V35.1129Z" fill="url(#paint1_linear_89_47)"/>
<path fill-rule="evenodd" clip-rule="evenodd" d="M0.73301 15.6335L0 6.50365L8.83334 6.15924C8.83334 6.15924 3.41308 9.46561 0.73301 15.6335Z" fill="url(#paint2_linear_89_47)"/>
<path fill-rule="evenodd" clip-rule="evenodd" d="M17.4949 27.1598L37.372 36.4733L23.3418 18.9083L27.1786 28.7384L17.4949 27.1598Z" fill="url(#paint3_linear_89_47)"/>
<defs>
<linearGradient id="paint0_linear_89_47" x1="21.263" y1="42.6871" x2="19.3412" y2="3.72582" gradientUnits="userSpaceOnUse">
<stop stop-color="#F1903E"/>
<stop offset="1" stop-color="#D13716"/>
</linearGradient>
<linearGradient id="paint1_linear_89_47" x1="16.2808" y1="42.934" x2="14.3619" y2="3.97266" gradientUnits="userSpaceOnUse">
<stop stop-color="#F1903E"/>
<stop offset="1" stop-color="#D13716"/>
</linearGradient>
<linearGradient id="paint2_linear_89_47" x1="6.23631" y1="43.4276" x2="4.31455" y2="4.46632" gradientUnits="userSpaceOnUse">
<stop stop-color="#F1903E"/>
<stop offset="1" stop-color="#D13716"/>
</linearGradient>
<linearGradient id="paint3_linear_89_47" x1="27.9489" y1="42.3571" x2="26.03" y2="3.39576" gradientUnits="userSpaceOnUse">
<stop stop-color="#F1903E"/>
<stop offset="1" stop-color="#D13716"/>
</linearGradient>
</defs>
</svg>
